<svg fill="none" xmlns="http://www.w3.org/2000/svg" viewBox="0 0 24 24"><path d="M20.25.75A3.005 3.005 0 0 0 17.345 3H14.25V1.5h-4.5V3H6.655A3.005 3.005 0 0 0 3.75.75c-1.654 0-3 1.346-3 3s1.346 3 3 3A3.005 3.005 0 0 0 6.655 4.5H9.75V6h4.5V4.5h3.095a3.005 3.005 0 0 0 2.905 2.25c1.654 0 3-1.346 3-3s-1.346-3-3-3Zm-16.5 4.5c-.827 0-1.5-.673-1.5-1.5s.673-1.5 1.5-1.5 1.5.673 1.5 1.5-.673 1.5-1.5 1.5Zm9-.75h-1.5V3h1.5v1.5Zm7.5.75c-.827 0-1.5-.673-1.5-1.5s.673-1.5 1.5-1.5 1.5.673 1.5 1.5-.673 1.5-1.5 1.5ZM11.133 7.5 3.75 20.253V22.5h16.5v-2.247L12.867 7.5h-1.734ZM5.051 21 12 8.997 18.95 21H5.05Z" fill="#000"/></svg>