<svg fill="none" xmlns="http://www.w3.org/2000/svg" viewBox="0 0 24 24"><path d="M12.375 15.75h-3.75v-1.5H7.5V3.75h6v10.5h-1.125v1.5Zm-2.25-1.5h.75v-1.5H12v-7.5H9v7.5h1.125v1.5ZM12.008 1.5h-3V3h3V1.5Zm2.242 18.748v-1.5h1.126a4.47 4.47 0 0 0 3.18-1.317 4.47 4.47 0 0 0 1.32-3.182c0-2.48-2.02-4.499-4.5-4.499H14.25v-1.5h1.126c3.308 0 6 2.691 6 6a5.96 5.96 0 0 1-1.759 4.242 5.96 5.96 0 0 1-4.24 1.756H14.25ZM16.5 21h-12v1.5h12V21Zm-3.742-2.25h-4.5v1.5h4.5v-1.5Zm1.492-2.25h-7.5V18h7.5v-1.5Z" fill="#000"/></svg>