<svg fill="none" xmlns="http://www.w3.org/2000/svg" viewBox="0 0 24 24"><path d="M4.5 16.5c-1.654 0-3 1.346-3 3s1.345 3 3 3c1.654 0 3-1.346 3-3s-1.346-3-3-3Zm0 4.5c-.827 0-1.5-.673-1.5-1.5S3.673 18 4.5 18s1.5.673 1.5 1.5S5.327 21 4.5 21ZM19.502 7.5c1.654 0 3-1.346 3-3s-1.345-3-3-3a2.98 2.98 0 0 0-2.121.879 2.98 2.98 0 0 0-.879 2.12c0 .802.312 1.555.879 2.122a2.98 2.98 0 0 0 2.12.879h.001Zm-1.06-4.06a1.502 1.502 0 0 1 2.56 1.06 1.502 1.502 0 0 1-2.56 1.06 1.49 1.49 0 0 1-.44-1.06c0-.4.156-.777.44-1.06ZM1.5 15h6V9h-6v6ZM3 10.5h3v3H3v-3ZM22.5 9h-6v6h6V9ZM21 13.5h-3v-3h3v3Zm-5.998-2.25h-2.25v1.5h2.25v-1.5Zm-2.251-2.253h-1.5v2.25h1.5v-2.25Zm-.001 6v-2.25h-1.498V11.25h-2.25v1.5h2.248v2.247h1.5ZM15 1.5H9v6h6v-6ZM13.5 6h-3V3h3v3ZM9 22.5h6v-6H9v6Zm1.5-4.5h3v3h-3v-3ZM4.498 7.5c1.654 0 3-1.346 3-3s-1.346-3-3-3-3 1.346-3 3 1.346 3 3 3Zm0-4.5c.827 0 1.5.673 1.5 1.5S5.325 6 4.498 6s-1.5-.673-1.5-1.5S3.67 3 4.498 3Zm15.004 13.5c-1.654 0-3 1.346-3 3s1.346 3 3 3 3-1.346 3-3-1.346-3-3-3Zm0 4.5c-.827 0-1.5-.673-1.5-1.5s.673-1.5 1.5-1.5 1.5.673 1.5 1.5-.673 1.5-1.5 1.5Z" fill="#000"/></svg>