<svg fill="none" xmlns="http://www.w3.org/2000/svg" viewBox="0 0 24 24"><path d="M3 17.25a.75.75 0 0 1 .75-.75h9.75a.75.75 0 0 1 .75.75v2.25h1.5v-2.25c0-1.24-1.009-2.25-2.25-2.25H3.75c-1.24 0-2.25 1.01-2.25 2.25v2.25H3v-2.25Zm13.5-7.5v1.5h2.25c1.241 0 2.25 1.01 2.25 2.25h1.5a3.754 3.754 0 0 0-3.75-3.75H16.5ZM22.502 15H16.5v1.5h6V15ZM8.25 13.5A3.754 3.754 0 0 0 12 9.75 3.754 3.754 0 0 0 8.25 6 3.754 3.754 0 0 0 4.5 9.75a3.754 3.754 0 0 0 3.75 3.75Zm0-6c1.241 0 2.25 1.01 2.25 2.25S9.492 12 8.25 12C7.01 12 6 10.99 6 9.75S7.01 7.5 8.25 7.5Zm7.5.75A3.754 3.754 0 0 0 19.5 4.5 3.754 3.754 0 0 0 15.75.75 3.754 3.754 0 0 0 12 4.5a3.754 3.754 0 0 0 3.75 3.75Zm0-6C16.992 2.25 18 3.26 18 4.5s-1.009 2.25-2.25 2.25c-1.24 0-2.25-1.01-2.25-2.25s1.01-2.25 2.25-2.25ZM15.752 21H1.502v1.5h14.25V21Z" fill="#000"/></svg>