<svg fill="none" xmlns="http://www.w3.org/2000/svg" viewBox="0 0 24 24"><path d="M4.5 3.75v-1.5h-3v3H3v-1.5h1.5ZM21 21H3V6.75H1.5V22.5h21V6.75H21V21ZM19.5 3.75H21v1.5h1.5v-3h-3v1.5ZM7.5 1.5H6v2.25h1.5V1.5Zm10.5 0h-1.5v2.25H18V1.5Zm-3 .75H9v1.5h6v-1.5Zm-12 3v1.5h18v-1.5H3Z" fill="#000"/><path d="M6 12.003a1.125 1.125 0 1 0 0-2.25 1.125 1.125 0 0 0 0 2.25Zm3 0a1.125 1.125 0 1 0 0-2.25 1.125 1.125 0 0 0 0 2.25Zm3 0a1.125 1.125 0 1 0 0-2.25 1.125 1.125 0 0 0 0 2.25Zm3 0a1.125 1.125 0 1 0 0-2.25 1.125 1.125 0 0 0 0 2.25Zm3 0a1.125 1.125 0 1 0 0-2.25 1.125 1.125 0 0 0 0 2.25ZM6 15a1.125 1.125 0 1 0 0-2.25A1.125 1.125 0 0 0 6 15Zm3 0a1.125 1.125 0 1 0 0-2.25A1.125 1.125 0 0 0 9 15Zm3 0a1.125 1.125 0 1 0 0-2.25A1.125 1.125 0 0 0 12 15Zm3 0a1.125 1.125 0 1 0 0-2.25A1.125 1.125 0 0 0 15 15Zm3 0a1.125 1.125 0 1 0 0-2.25A1.125 1.125 0 0 0 18 15ZM6 18.003a1.125 1.125 0 1 0 0-2.25 1.125 1.125 0 0 0 0 2.25Zm3 0a1.125 1.125 0 1 0 0-2.25 1.125 1.125 0 0 0 0 2.25Zm3 0a1.125 1.125 0 1 0 0-2.25 1.125 1.125 0 0 0 0 2.25Zm3 0a1.125 1.125 0 1 0 0-2.25 1.125 1.125 0 0 0 0 2.25Zm3 0a1.125 1.125 0 1 0 0-2.25 1.125 1.125 0 0 0 0 2.25Z" fill="#000"/></svg>